<svg xmlns="http://www.w3.org/2000/svg" viewBox="0 0 48 48">
    <path fill="#f5f5f5" d="M2 10h44v30H2z"/>
    <path fill="none" stroke="#263238" stroke-miterlimit="10" stroke-width=".75" d="M15.58 14.59l-4.376 6.751M8.088 30.712l4.377 6.751M33.977 13.551l4.402 6.751M9.646 20.327l4.377-6.751M34.793 18.225l2.003 3.091M39.813 30.712l-2.028 3.116M14.023 36.449l-2.028-3.116M37.909 16.197l2.028 3.091M36.698 28.684L34.67 31.8M38.255 29.698l-2.027 3.116M32.42 14.59l2.027 3.091M37.439 34.347l-2.002 3.116M11.649 32.814l-2.003-3.116M35.535 12.562l2.028 3.091M34.324 32.319l-2.028 3.116M35.882 33.333l-2.003 3.116M12.465 12.562l-4.402 6.751M11.204 28.684l4.376 6.751" clip-rule="evenodd"/>
    <path fill="#f44336" fill-rule="evenodd" d="M20 29a4 4 0 0 0 4-4 4 4 0 0 1 8 0 8 8 0 0 0-16 0 4 4 0 0 0 4 4z" clip-rule="evenodd"/>
    <path fill="#3949ab" fill-rule="evenodd" d="M28 21a4 4 0 0 0-4 4 4 4 0 0 1-8 0 8 8 0 0 0 16 0 4 4 0 0 0-4-4z" clip-rule="evenodd"/>
</svg>
