<svg xmlns="http://www.w3.org/2000/svg" width="48" height="48" viewBox="0 0 48 48">
    <path fill="#ECEFF1" d="M1.998 10h44v27h-44z"/>
    <g fill="#F44336">
        <path d="M2 10h44v3H2zM2 16h44v3H2zM2 22h44v3H2zM2 28h44v3H2zM2 34h44v3H2z"/>
    </g>
    <path fill="#3F51B5" d="M2 10h21v15H2z"/>
    <g fill="#FFF">
        <path d="M4.25 12l.463.988 1.037.158-.75.77L5.178 15l-.928-.512-.928.512.178-1.084-.75-.77 1.037-.158zM8.25 12l.463.988 1.037.158-.75.77L9.178 15l-.928-.512-.928.512.178-1.084-.75-.77 1.037-.158zM12.25 12l.463.988 1.037.158-.75.77.178 1.084-.928-.512-.928.512.178-1.084-.75-.77 1.037-.158zM16.25 12l.463.988 1.037.158-.75.77.178 1.084-.928-.512-.928.512.178-1.084-.75-.77 1.037-.158zM20 12l.463.988 1.037.158-.75.77.178 1.084-.928-.512-.928.512.178-1.084-.75-.77 1.037-.158zM4.25 20l.463.988 1.037.158-.75.77L5.178 23l-.928-.512-.928.512.178-1.084-.75-.77 1.037-.158zM8.25 20l.463.988 1.037.158-.75.77L9.178 23l-.928-.512-.928.512.178-1.084-.75-.77 1.037-.158zM12.25 20l.463.988 1.037.158-.75.77.178 1.084-.928-.512-.928.512.178-1.084-.75-.77 1.037-.158zM16.25 20l.463.988 1.037.158-.75.77.178 1.084-.928-.512-.928.512.178-1.084-.75-.77 1.037-.158zM20 20l.463.988 1.037.158-.75.77.178 1.084-.928-.512-.928.512.178-1.084-.75-.77 1.037-.158zM5.25 16l.463.988 1.037.158-.75.77L6.178 19l-.928-.512-.928.512.178-1.084-.75-.77 1.037-.158zM9.25 16l.463.988 1.037.158-.75.77.178 1.084-.928-.512-.928.512.178-1.084-.75-.77 1.037-.158zM13.25 16l.463.988 1.037.158-.75.77.178 1.084-.928-.512-.928.512.178-1.084-.75-.77 1.037-.158zM17.25 16l.463.988 1.037.158-.75.77.178 1.084-.928-.512-.928.512.178-1.084-.75-.77 1.037-.158zM21 16l.463.988 1.037.158-.75.77.178 1.084-.928-.512-.928.512.178-1.084-.75-.77 1.037-.158z"/>
    </g>
</svg>
