<svg xmlns="http://www.w3.org/2000/svg" viewBox="0 0 24 24">
    <path d="M11.938 2c-.258 0-.524.086-.72.281L7 6.531a.99.99 0 0 0 0 1.407.99.99 0 0 0 1.406 0l4.25-4.22c.39-.39.39-1.046 0-1.437A1.008 1.008 0 0 0 11.937 2zm1.406 2.406l-4.25 4.25s-.031.801.781 2l-7.281 7.281c-.692.692-.805 1.727-.219 2.313.586.586 1.621.504 2.313-.188L12 12.782c1.246.87 2.063.812 2.063.812l4.25-4.219s.074-1.332-1.782-3.188c-1.855-1.855-3.187-1.78-3.187-1.78zm6.375 5.375c-.258 0-.524.086-.719.281l-4.25 4.25a.99.99 0 0 0 0 1.407c.39.39 1.047.39 1.438 0l4.218-4.219c.39-.39.39-1.047 0-1.438a.938.938 0 0 0-.687-.28zM13 20c-1.105 0-2 .895-2 2h11c0-1.105-.895-2-2-2z"/>
</svg>
