<svg xmlns="http://www.w3.org/2000/svg" viewBox="0 0 24 24">
    <path d="M4 3a2 2 0 0 0-.387.04c-.01.001-.02.005-.031.007A2 2 0 0 0 2 5v8a2 2 0 0 0 .04.387c.001.01.005.02.007.031A2 2 0 0 0 4 15h16a2 2 0 0 0 .387-.04c.01-.001.02-.005.031-.007A2 2 0 0 0 22 13V5a2 2 0 0 0-.04-.387c-.001-.01-.005-.02-.007-.031A2 2 0 0 0 20 3H4zm2 2h12a2 2 0 0 0 2 2v4a2 2 0 0 0-2 2H6a2 2 0 0 0-2-2V7a2 2 0 0 0 2-2zm6 1a3 3 0 0 0-3 3 3 3 0 0 0 3 3 3 3 0 0 0 3-3 3 3 0 0 0-3-3zM7 8a1 1 0 1 0 0 2 1 1 0 0 0 0-2zm10 0a1 1 0 1 0 0 2 1 1 0 0 0 0-2zM2 16v1a2 2 0 0 0 .342 1.117v.002a2.02 2.02 0 0 0 .539.54h.002A1.995 1.995 0 0 0 4 19c4.516 0 8.853.814 12.02 1.41 1.68.316 2.911.542 3.757.576A2 2 0 0 0 20 21a2 2 0 0 0 .385-.04l.039-.009a2 2 0 0 0 .34-.105l.03-.014a2 2 0 0 0 .323-.174l.01-.008a2 2 0 0 0 .287-.236l.01-.014a2 2 0 0 0 .234-.283l.004-.006a2 2 0 0 0 .18-.334A2 2 0 0 0 22 19v-3h-2v1a2 2 0 0 0-1.98 1.74c-.512-.09-1.031-.182-1.631-.295-2.78-.522-6.445-1.206-10.395-1.392 0-.018.006-.035.006-.053 0-.366-.106-.705-.277-1H2z"/>
</svg>
