<svg xmlns="http://www.w3.org/2000/svg" width="34" height="47">
    <path fill="#D62D1F" fill-rule="evenodd" d="M30.594 23.359c-1.459-1.099-3.538-1.539-3.538-1.539s1.759-1.02 2.478-2.039c.72-1.02 1.079-2.599 1.139-3.419.06-.82.2-4.258-2.478-6.236-2.072-1.532-4.447-2.139-7.635-2.338V.85h-4.277v6.857h-3.258V.85H8.748v6.857H.333v4.442h2.473c.674 0 1.874.075 2.383.645.51.57.6.87.6 1.979v17.703c0 .419-.08.938-.44 1.279-.359.34-.719.419-1.579.419H1.212l-.879 5.139h8.415v6.837h4.277v-6.837h3.258v6.837h4.277V39.2c1.106-.065 2.137-.148 2.738-.228 1.22-.159 3.978-.479 6.557-2.278 2.578-1.799 3.157-4.618 3.217-7.457.061-2.839-1.02-4.778-2.478-5.878zM13.025 12.545s1.359-.12 2.698-.101c1.34.02 2.518.06 4.278.6 1.758.54 2.797 1.86 2.838 3.419.039 1.56-.641 2.598-1.84 3.258-1.199.66-2.857 1.02-4.416 1.08-1.559.06-3.558 0-3.558 0v-8.256zm9.574 20.45c-.98.54-2.939 1.019-4.837 1.159-1.899.141-4.737.081-4.737.081v-9.176s2.718-.141 4.837 0c2.118.14 3.897.68 4.696 1.079.8.4 2.199 1.279 2.199 3.379 0 2.098-1.18 2.939-2.158 3.478z"/>
</svg>
